<svg id="greedy_anim" viewBox="-1 -1 752 252" shapeRendering="crispEdges" class="mx-auto" xmlns="http://www.w3.org/2000/svg"><style type="text/css">
       * { stroke-width: 2px; }
       svg > g.voxel_grid > rect { stroke: none; }
       svg > g.voxel_faces > rect { fill: url(#quad); stroke: #000000; stroke-opacity: 50%; }
     </style><defs><pattern id="emptyPattern" x="0" y="0" width="10" height="10" patternUnits="userSpaceOnUse"><rect x="0" y="0" width="5" height="5" fill="#eeeeee"></rect><rect x="5" y="5" width="5" height="5" fill="#eeeeee"></rect></pattern><pattern id="quad" x="0" y="0" width="10" height="10" patternUnits="userSpaceOnUse"><line x1="-1" y1="1" x2="1" y2="-1" stroke="#000000" stroke-opacity="20%"></line><line x1="9" y1="11" x2="11" y2="9" stroke="#000000" stroke-opacity="20%"></line><line x1="0" y1="10" x2="10" y2="0" stroke="#000000" stroke-opacity="20%"></line></pattern></defs><g class="voxel_grid"><rect x="0" y="0" width="50" height="50" fill="#22aa22"></rect><rect x="50" y="0" width="50" height="50" fill="#22aa22"></rect><rect x="100" y="0" width="50" height="50" fill="url(#emptyPattern)"></rect><rect x="150" y="0" width="50" height="50" fill="url(#emptyPattern)"></rect><rect x="200" y="0" width="50" height="50" fill="#22aa22"></rect><rect x="250" y="0" width="50" height="50" fill="#22aa22"></rect><rect x="300" y="0" width="50" height="50" fill="#22aa22"></rect><rect x="350" y="0" width="50" height="50" fill="#22aa22"></rect><rect x="400" y="0" width="50" height="50" fill="#22aa22"></rect><rect x="450" y="0" width="50" height="50" fill="#22aa22"></rect><rect x="500" y="0" width="50" height="50" fill="#22aa22"></rect><rect x="550" y="0" width="50" height="50" fill="#ffcc22"></rect><rect x="600" y="0" width="50" height="50" fill="#ffcc22"></rect><rect x="650" y="0" width="50" height="50" fill="#2288ff"></rect><rect x="700" y="0" width="50" height="50" fill="#2288ff"></rect><rect x="0" y="50" width="50" height="50" fill="#22aa22"></rect><rect x="50" y="50" width="50" height="50" fill="#22aa22"></rect><rect x="100" y="50" width="50" height="50" fill="url(#emptyPattern)"></rect><rect x="150" y="50" width="50" height="50" fill="url(#emptyPattern)"></rect><rect x="200" y="50" width="50" height="50" fill="url(#emptyPattern)"></rect><rect x="250" y="50" width="50" height="50" fill="#22aa22"></rect><rect x="300" y="50" width="50" height="50" fill="#22aa22"></rect><rect x="350" y="50" width="50" height="50" fill="#22aa22"></rect><rect x="400" y="50" width="50" height="50" fill="#22aa22"></rect><rect x="450" y="50" width="50" height="50" fill="#22aa22"></rect><rect x="500" y="50" width="50" height="50" fill="#ffcc22"></rect><rect x="550" y="50" width="50" height="50" fill="#ffcc22"></rect><rect x="600" y="50" width="50" height="50" fill="#2288ff"></rect><rect x="650" y="50" width="50" height="50" fill="#2288ff"></rect><rect x="700" y="50" width="50" height="50" fill="#2288ff"></rect><rect x="0" y="100" width="50" height="50" fill="#22aa22"></rect><rect x="50" y="100" width="50" height="50" fill="#22aa22"></rect><rect x="100" y="100" width="50" height="50" fill="#22aa22"></rect><rect x="150" y="100" width="50" height="50" fill="url(#emptyPattern)"></rect><rect x="200" y="100" width="50" height="50" fill="url(#emptyPattern)"></rect><rect x="250" y="100" width="50" height="50" fill="url(#emptyPattern)"></rect><rect x="300" y="100" width="50" height="50" fill="url(#emptyPattern)"></rect><rect x="350" y="100" width="50" height="50" fill="url(#emptyPattern)"></rect><rect x="400" y="100" width="50" height="50" fill="#22aa22"></rect><rect x="450" y="100" width="50" height="50" fill="#22aa22"></rect><rect x="500" y="100" width="50" height="50" fill="#ffcc22"></rect><rect x="550" y="100" width="50" height="50" fill="#2288ff"></rect><rect x="600" y="100" width="50" height="50" fill="#2288ff"></rect><rect x="650" y="100" width="50" height="50" fill="#ffcc22"></rect><rect x="700" y="100" width="50" height="50" fill="#ffcc22"></rect><rect x="0" y="150" width="50" height="50" fill="#22aa22"></rect><rect x="50" y="150" width="50" height="50" fill="#22aa22"></rect><rect x="100" y="150" width="50" height="50" fill="#22aa22"></rect><rect x="150" y="150" width="50" height="50" fill="#22aa22"></rect><rect x="200" y="150" width="50" height="50" fill="#22aa22"></rect><rect x="250" y="150" width="50" height="50" fill="#22aa22"></rect><rect x="300" y="150" width="50" height="50" fill="#22aa22"></rect><rect x="350" y="150" width="50" height="50" fill="#22aa22"></rect><rect x="400" y="150" width="50" height="50" fill="#22aa22"></rect><rect x="450" y="150" width="50" height="50" fill="#22aa22"></rect><rect x="500" y="150" width="50" height="50" fill="#ffcc22"></rect><rect x="550" y="150" width="50" height="50" fill="#ffcc22"></rect><rect x="600" y="150" width="50" height="50" fill="#ffcc22"></rect><rect x="650" y="150" width="50" height="50" fill="#22aa22"></rect><rect x="700" y="150" width="50" height="50" fill="url(#emptyPattern)"></rect><rect x="0" y="200" width="50" height="50" fill="#22aa22"></rect><rect x="50" y="200" width="50" height="50" fill="#22aa22"></rect><rect x="100" y="200" width="50" height="50" fill="#22aa22"></rect><rect x="150" y="200" width="50" height="50" fill="#22aa22"></rect><rect x="200" y="200" width="50" height="50" fill="url(#emptyPattern)"></rect><rect x="250" y="200" width="50" height="50" fill="url(#emptyPattern)"></rect><rect x="300" y="200" width="50" height="50" fill="url(#emptyPattern)"></rect><rect x="350" y="200" width="50" height="50" fill="url(#emptyPattern)"></rect><rect x="400" y="200" width="50" height="50" fill="url(#emptyPattern)"></rect><rect x="450" y="200" width="50" height="50" fill="#22aa22"></rect><rect x="500" y="200" width="50" height="50" fill="#22aa22"></rect><rect x="550" y="200" width="50" height="50" fill="#22aa22"></rect><rect x="600" y="200" width="50" height="50" fill="#22aa22"></rect><rect x="650" y="200" width="50" height="50" fill="url(#emptyPattern)"></rect><rect x="700" y="200" width="50" height="50" fill="url(#emptyPattern)"></rect></g><g class="voxel_faces"><rect x="0" y="0" height="50"><animate id="face0" attributeName="width" from="0" to="100" values="0;100;100" begin="1s" dur="1.5s" fill="freeze" keySplines="0.1 0.8 0.2 1;0.1 0.8 0.2 1" keyTimes="0;0.8;1" calcMode="spline"></animate><animate id="face0_height" attributeName="height" from="50" to="250" values="50;250;250" begin="face0.end" dur="1.5s" fill="freeze" keySplines="0.1 0.8 0.2 1;0.1 0.8 0.2 1" keyTimes="0;0.8;1" calcMode="spline"></animate></rect><rect x="200" y="0" height="50"><animate id="face1" attributeName="width" from="0" to="350" values="0;350;350" begin="face0_height.end" dur="1.5s" fill="freeze" keySplines="0.1 0.8 0.2 1;0.1 0.8 0.2 1" keyTimes="0;0.8;1" calcMode="spline"></animate></rect><rect x="550" y="0" height="50"><animate id="face2" attributeName="width" from="0" to="100" values="0;100;100" begin="face1.end" dur="1.5s" fill="freeze" keySplines="0.1 0.8 0.2 1;0.1 0.8 0.2 1" keyTimes="0;0.8;1" calcMode="spline"></animate></rect><rect x="650" y="0" height="50"><animate id="face3" attributeName="width" from="0" to="100" values="0;100;100" begin="face2.end" dur="1.5s" fill="freeze" keySplines="0.1 0.8 0.2 1;0.1 0.8 0.2 1" keyTimes="0;0.8;1" calcMode="spline"></animate><animate id="face3_height" attributeName="height" from="50" to="100" values="50;100;100" begin="face3.end" dur="1.5s" fill="freeze" keySplines="0.1 0.8 0.2 1;0.1 0.8 0.2 1" keyTimes="0;0.8;1" calcMode="spline"></animate></rect><rect x="250" y="50" height="50"><animate id="face4" attributeName="width" from="0" to="250" values="0;250;250" begin="face3_height.end" dur="1.5s" fill="freeze" keySplines="0.1 0.8 0.2 1;0.1 0.8 0.2 1" keyTimes="0;0.8;1" calcMode="spline"></animate></rect><rect x="500" y="50" height="50"><animate id="face5" attributeName="width" from="0" to="100" values="0;100;100" begin="face4.end" dur="1.5s" fill="freeze" keySplines="0.1 0.8 0.2 1;0.1 0.8 0.2 1" keyTimes="0;0.8;1" calcMode="spline"></animate></rect><rect x="600" y="50" height="50"><animate id="face6" attributeName="width" from="0" to="50" values="0;50;50" begin="face5.end" dur="1.5s" fill="freeze" keySplines="0.1 0.8 0.2 1;0.1 0.8 0.2 1" keyTimes="0;0.8;1" calcMode="spline"></animate><animate id="face6_height" attributeName="height" from="50" to="100" values="50;100;100" begin="face6.end" dur="1.5s" fill="freeze" keySplines="0.1 0.8 0.2 1;0.1 0.8 0.2 1" keyTimes="0;0.8;1" calcMode="spline"></animate></rect><rect x="100" y="100" height="50"><animate id="face7" attributeName="width" from="0" to="50" values="0;50;50" begin="face6_height.end" dur="1.5s" fill="freeze" keySplines="0.1 0.8 0.2 1;0.1 0.8 0.2 1" keyTimes="0;0.8;1" calcMode="spline"></animate><animate id="face7_height" attributeName="height" from="50" to="150" values="50;150;150" begin="face7.end" dur="1.5s" fill="freeze" keySplines="0.1 0.8 0.2 1;0.1 0.8 0.2 1" keyTimes="0;0.8;1" calcMode="spline"></animate></rect><rect x="400" y="100" height="50"><animate id="face8" attributeName="width" from="0" to="100" values="0;100;100" begin="face7_height.end" dur="1.5s" fill="freeze" keySplines="0.1 0.8 0.2 1;0.1 0.8 0.2 1" keyTimes="0;0.8;1" calcMode="spline"></animate><animate id="face8_height" attributeName="height" from="50" to="100" values="50;100;100" begin="face8.end" dur="1.5s" fill="freeze" keySplines="0.1 0.8 0.2 1;0.1 0.8 0.2 1" keyTimes="0;0.8;1" calcMode="spline"></animate></rect><rect x="500" y="100" height="50"><animate id="face9" attributeName="width" from="0" to="50" values="0;50;50" begin="face8_height.end" dur="1.5s" fill="freeze" keySplines="0.1 0.8 0.2 1;0.1 0.8 0.2 1" keyTimes="0;0.8;1" calcMode="spline"></animate><animate id="face9_height" attributeName="height" from="50" to="100" values="50;100;100" begin="face9.end" dur="1.5s" fill="freeze" keySplines="0.1 0.8 0.2 1;0.1 0.8 0.2 1" keyTimes="0;0.8;1" calcMode="spline"></animate></rect><rect x="550" y="100" height="50"><animate id="face10" attributeName="width" from="0" to="50" values="0;50;50" begin="face9_height.end" dur="1.5s" fill="freeze" keySplines="0.1 0.8 0.2 1;0.1 0.8 0.2 1" keyTimes="0;0.8;1" calcMode="spline"></animate></rect><rect x="650" y="100" height="50"><animate id="face11" attributeName="width" from="0" to="100" values="0;100;100" begin="face10.end" dur="1.5s" fill="freeze" keySplines="0.1 0.8 0.2 1;0.1 0.8 0.2 1" keyTimes="0;0.8;1" calcMode="spline"></animate></rect><rect x="150" y="150" height="50"><animate id="face12" attributeName="width" from="0" to="250" values="0;250;250" begin="face11.end" dur="1.5s" fill="freeze" keySplines="0.1 0.8 0.2 1;0.1 0.8 0.2 1" keyTimes="0;0.8;1" calcMode="spline"></animate></rect><rect x="550" y="150" height="50"><animate id="face13" attributeName="width" from="0" to="100" values="0;100;100" begin="face12.end" dur="1.5s" fill="freeze" keySplines="0.1 0.8 0.2 1;0.1 0.8 0.2 1" keyTimes="0;0.8;1" calcMode="spline"></animate></rect><rect x="650" y="150" height="50"><animate id="face14" attributeName="width" from="0" to="50" values="0;50;50" begin="face13.end" dur="1.5s" fill="freeze" keySplines="0.1 0.8 0.2 1;0.1 0.8 0.2 1" keyTimes="0;0.8;1" calcMode="spline"></animate></rect><rect x="150" y="200" height="50"><animate id="face15" attributeName="width" from="0" to="50" values="0;50;50" begin="face14.end" dur="1.5s" fill="freeze" keySplines="0.1 0.8 0.2 1;0.1 0.8 0.2 1" keyTimes="0;0.8;1" calcMode="spline"></animate></rect><rect x="450" y="200" height="50"><animate id="face16" attributeName="width" from="0" to="200" values="0;200;200" begin="face15.end" dur="1.5s" fill="freeze" keySplines="0.1 0.8 0.2 1;0.1 0.8 0.2 1" keyTimes="0;0.8;1" calcMode="spline"></animate></rect></g></svg>